<svg xmlns="http://www.w3.org/2000/svg" viewBox="0 0 622 216" width="622" height="216">
	<style>
		tspan { white-space:pre }
		.shp0 { fill: #000000 } 
	</style>
	<g id="Layer">
		<g id="Layer">
			<g id="Layer">
				<path id="Layer" fill-rule="evenodd" class="shp0" d="M0.4 -0.1L621.4 -0.1L621.4 6.4L621.1 212.6L621.1 216.1L0.4 216.1L0.4 -0.1ZM469.3 104.7L535.7 104.7L469.3 13.2L469.3 104.7ZM155.1 104.7L324.2 104.7L367.4 6.3L155.1 6.3L155.1 104.7ZM331 104.6L413.2 104.6L372.1 11.1L331 104.6ZM148.8 209.3L148.8 111.1L6.8 111.1L6.8 209.3L148.8 209.3ZM148.7 6.3L72.2 6.3L72.2 6.5L6.7 6.5L6.7 104.7L148.7 104.7L148.7 6.3ZM275.5 209.5L278.1 209.5L321.3 111.1L155.1 111.1L155.1 209.3L275.5 209.3L275.5 209.5ZM459.5 209.5L416.2 111.1L328.2 111.1L284.9 209.5L459.5 209.5ZM463 111.2L423 111.2L463 202.2L463 111.2ZM463 6.3L377 6.3L420.2 104.7L463 104.7L463 6.3ZM611.8 209.5L540.4 111.1L469.3 111.1L469.3 209.5L611.8 209.5ZM615 111.2L548.4 111.2L614.8 202.7L615 111.2ZM615.1 6.3L472.2 6.3L543.6 104.7L614.9 104.7L614.9 108.1L615.1 6.3Z" />
			</g>
		</g>
	</g>
</svg>